<svg width="50" height="36" viewBox="0 0 50 36" fill="none" xmlns="http://www.w3.org/2000/svg">
<g clip-path="url(#clip0_102_61)">
<path d="M49.5069 13.5706C49.3714 13.4627 48.1053 12.5049 45.4356 12.5049C44.7307 12.508 44.0274 12.5686 43.3321 12.6861C42.8155 9.13764 39.8874 7.40757 39.7562 7.32994L39.0392 6.91573L38.5677 7.59742C37.9774 8.51315 37.5464 9.52261 37.2932 10.5829C36.8153 12.6085 37.1058 14.511 38.1328 16.1376C36.8927 16.83 34.9035 17.0004 34.5009 17.0155H1.56513C0.704859 17.0167 0.00678875 17.7132 0.00210043 18.5752C-0.0363159 21.4661 0.452529 24.3398 1.44457 27.0547C2.57914 30.0359 4.26708 32.2319 6.4631 33.5759C8.92391 35.0859 12.9219 35.9487 17.4539 35.9487C19.5013 35.9551 21.5447 35.7695 23.5575 35.3943C26.3555 34.8796 29.048 33.8998 31.5234 32.4951C33.5631 31.3117 35.3987 29.806 36.9597 28.0363C39.569 25.0766 41.1235 21.7805 42.2796 18.8513H42.7401C45.5973 18.8513 47.354 17.7057 48.3228 16.7459C48.9666 16.1336 49.4693 15.3879 49.7954 14.5607L50 13.961L49.5069 13.5706Z" fill="#218BEA"/>
<path d="M4.61803 16.0491H9.03155C9.24442 16.0491 9.4169 15.8763 9.4169 15.6631V11.7241C9.4181 11.5108 9.24652 11.337 9.03372 11.3358C9.03303 11.3358 9.03225 11.3358 9.03155 11.3358H4.61803C4.40517 11.3358 4.23267 11.5087 4.23267 11.7219V15.663C4.23267 15.8763 4.40517 16.0491 4.61803 16.0491Z" fill="#218BEA"/>
<path d="M10.7001 16.0491H15.1136C15.3265 16.0491 15.499 15.8763 15.499 15.6631V11.7241C15.5002 11.5108 15.3286 11.337 15.1157 11.3358C15.115 11.3358 15.1143 11.3358 15.1136 11.3358H10.7C10.486 11.3358 10.3125 11.5096 10.3125 11.7241V15.663C10.3138 15.8766 10.4869 16.0491 10.7001 16.0491Z" fill="#218BEA"/>
<path d="M16.8747 16.0491H21.2881C21.5011 16.0491 21.6735 15.8763 21.6735 15.6631V11.7241C21.6748 11.5108 21.5031 11.337 21.2903 11.3358C21.2896 11.3358 21.2889 11.3358 21.2881 11.3358H16.8746C16.6618 11.3358 16.4893 11.5087 16.4893 11.7219V15.663C16.4893 15.8763 16.6619 16.0491 16.8747 16.0491Z" fill="#218BEA"/>
<path d="M22.9761 16.0491H27.3896C27.6029 16.0491 27.7761 15.8767 27.7772 15.6631V11.7241C27.7772 11.5096 27.6037 11.3358 27.3896 11.3358H22.9761C22.7633 11.3358 22.5909 11.5087 22.5909 11.7219V15.663C22.5909 15.8763 22.7633 16.0491 22.9761 16.0491Z" fill="#218BEA"/>
<path d="M10.7001 10.3823H15.1136C15.3268 10.3811 15.499 10.2076 15.499 9.99403V6.05509C15.499 5.84182 15.3264 5.66899 15.1136 5.66899H10.7001C10.4869 5.66899 10.3137 5.84147 10.3126 6.05509V9.99403C10.3137 10.208 10.4865 10.3811 10.7001 10.3823Z" fill="#218BEA"/>
<path d="M16.8747 10.3823H21.2881C21.5013 10.3811 21.6735 10.2076 21.6735 9.99403V6.05509C21.6735 5.84182 21.5011 5.66899 21.2881 5.66899H16.8747C16.6618 5.66899 16.4893 5.84189 16.4893 6.05509V9.99403C16.4893 10.2076 16.6615 10.3811 16.8747 10.3823Z" fill="#218BEA"/>
<path d="M22.9761 10.3823H27.3896C27.6033 10.3811 27.7761 10.208 27.7772 9.99403V6.05509C27.7761 5.84147 27.6029 5.66899 27.3896 5.66899H22.9761C22.7633 5.66899 22.5909 5.84189 22.5909 6.05509V9.99403C22.5909 10.2076 22.763 10.3811 22.9761 10.3823Z" fill="#218BEA"/>
<path d="M22.9761 4.71338H27.3896C27.6029 4.71338 27.7761 4.54084 27.7772 4.32728V0.386104C27.7761 0.172474 27.6029 0 27.3896 0H22.9761C22.7633 0 22.5909 0.172825 22.5909 0.386104V4.32721C22.5909 4.54049 22.7633 4.71338 22.9761 4.71338Z" fill="#218BEA"/>
<path d="M29.1314 16.0491H33.5449C33.7582 16.0491 33.9314 15.8767 33.9325 15.6631V11.7241C33.9325 11.5096 33.7589 11.3358 33.5449 11.3358H29.1314C28.9186 11.3358 28.7462 11.5087 28.7462 11.7219V15.663C28.7462 15.8763 28.9186 16.0491 29.1314 16.0491Z" fill="#218BEA"/>
</g>
<defs>
<clipPath id="clip0_102_61">
<rect width="50" height="35.9489" fill="white"/>
</clipPath>
</defs>
</svg>
