<svg width="34" height="50" viewBox="0 0 34 50" fill="none" xmlns="http://www.w3.org/2000/svg">
<g clip-path="url(#clip0_102_72)">
<path d="M8.33669 50C12.9367 50 16.67 46.2667 16.67 41.6667V33.3333H8.33669C3.73669 33.3333 0.00335693 37.0667 0.00335693 41.6667C0.00335693 46.2667 3.73669 50 8.33669 50Z" fill="#0ACF83"/>
<path d="M0.00335693 25C0.00335693 20.4 3.73669 16.6667 8.33669 16.6667H16.67V33.3333H8.33669C3.73669 33.3333 0.00335693 29.6 0.00335693 25Z" fill="#A259FF"/>
<path d="M0.00335693 8.33333C0.00335693 3.73333 3.73669 0 8.33669 0H16.67V16.6667H8.33669C3.73669 16.6667 0.00335693 12.9333 0.00335693 8.33333Z" fill="#F24E1E"/>
<path d="M16.67 0H25.0033C29.6033 0 33.3366 3.73333 33.3366 8.33333C33.3366 12.9333 29.6033 16.6667 25.0033 16.6667H16.67V0Z" fill="#FF7262"/>
<path d="M33.3366 25C33.3366 29.6 29.6033 33.3333 25.0033 33.3333C20.4033 33.3333 16.67 29.6 16.67 25C16.67 20.4 20.4033 16.6667 25.0033 16.6667C29.6033 16.6667 33.3366 20.4 33.3366 25Z" fill="#1ABCFE"/>
</g>
<defs>
<clipPath id="clip0_102_72">
<rect width="33.34" height="50" fill="white"/>
</clipPath>
</defs>
</svg>
