<svg width="50" height="49" viewBox="0 0 50 49" fill="none" xmlns="http://www.w3.org/2000/svg">
<g clip-path="url(#clip0_102_78)">
<path d="M49.0446 19.2262L48.9777 19.0478L42.2261 1.43637C42.0895 1.09056 41.8462 0.797213 41.5318 0.598786C41.2971 0.448585 41.0306 0.355442 40.7535 0.326821C40.4764 0.298198 40.1965 0.334894 39.936 0.433968C39.6758 0.533044 39.442 0.691738 39.2541 0.897337C39.0662 1.10293 38.929 1.34971 38.8535 1.61789L34.2962 15.5701H15.8408L11.2834 1.61789C11.2074 1.35011 11.0699 1.1038 10.8818 0.898595C10.6937 0.693391 10.4603 0.534977 10.2001 0.435983C9.9399 0.33699 9.66022 0.300157 9.38328 0.328423C9.10637 0.356691 8.83987 0.44927 8.60506 0.598786C8.29063 0.797213 8.04745 1.09056 7.91079 1.43637L1.1624 19.051L1.09234 19.2262C0.120762 21.7654 0.00106756 24.5516 0.751297 27.1648C1.50152 29.7779 3.081 32.0764 5.25159 33.7134L5.27707 33.7325L5.33436 33.7771L15.6051 41.4745L20.7006 45.3248L23.7961 47.6656C24.1594 47.9401 24.6021 48.0885 25.0573 48.0885C25.5125 48.0885 25.9553 47.9401 26.3184 47.6656L29.414 45.3248L34.5096 41.4745L44.8535 33.7325L44.8822 33.7102C47.0525 32.0739 48.6322 29.7761 49.3831 27.1636C50.1338 24.5511 50.015 21.7653 49.0446 19.2262Z" fill="#E24329"/>
<path d="M49.0446 19.2261L48.9777 19.0478C45.6882 19.7228 42.5885 21.117 39.9013 23.1306L25.0764 34.3408L34.5159 41.4745L44.8599 33.7325L44.8885 33.7102C47.0579 32.0729 48.6363 29.7748 49.386 27.1624C50.1353 24.5499 50.0156 21.7646 49.0446 19.2261Z" fill="#FC6D26"/>
<path d="M15.6051 41.4745L20.7006 45.3248L23.7962 47.6656C24.1594 47.9401 24.6021 48.0885 25.0573 48.0885C25.5125 48.0885 25.9553 47.9401 26.3185 47.6656L29.414 45.3248L34.5096 41.4745L25.0701 34.3408L15.6051 41.4745Z" fill="#FCA326"/>
<path d="M10.2356 23.1307C7.5492 21.1181 4.45073 19.725 1.1624 19.0511L1.09234 19.2262C0.120762 21.7654 0.00106756 24.5517 0.751297 27.1648C1.50152 29.778 3.081 32.0764 5.25159 33.7134L5.27707 33.7325L5.33436 33.7771L15.6051 41.4745L25.051 34.3408L10.2356 23.1307Z" fill="#FC6D26"/>
</g>
<defs>
<clipPath id="clip0_102_78">
<rect width="50" height="48.0892" fill="white"/>
</clipPath>
</defs>
</svg>
