<svg width="50" height="52" viewBox="0 0 50 52" fill="none" xmlns="http://www.w3.org/2000/svg">
<g clip-path="url(#clip0_102_98)">
<path d="M29.2237 50.589C27.912 52.2408 25.2524 51.3358 25.2208 49.2266L24.7587 18.3774H45.5017C49.2587 18.3774 51.3541 22.7169 49.0179 25.6594L29.2237 50.589Z" fill="url(#paint0_linear_102_98)"/>
<path d="M29.2237 50.589C27.912 52.2408 25.2524 51.3358 25.2208 49.2266L24.7587 18.3774H45.5017C49.2587 18.3774 51.3541 22.7169 49.0179 25.6594L29.2237 50.589Z" fill="url(#paint1_linear_102_98)" fill-opacity="0.2"/>
<path d="M20.7876 0.950012C22.0993 -0.702006 24.7589 0.203181 24.7905 2.31238L24.9931 33.1616H4.50967C0.752448 33.1616 -1.34302 28.8221 0.993329 25.8796L20.7876 0.950012Z" fill="#3ECF8E"/>
</g>
<defs>
<linearGradient id="paint0_linear_102_98" x1="24.7587" y1="25.2174" x2="43.1943" y2="32.9493" gradientUnits="userSpaceOnUse">
<stop stop-color="#249361"/>
<stop offset="1" stop-color="#3ECF8E"/>
</linearGradient>
<linearGradient id="paint1_linear_102_98" x1="16.5853" y1="14.0266" x2="24.9929" y2="29.8535" gradientUnits="userSpaceOnUse">
<stop/>
<stop offset="1" stop-opacity="0"/>
</linearGradient>
<clipPath id="clip0_102_98">
<rect width="50" height="51.8349" fill="white"/>
</clipPath>
</defs>
</svg>
